<svg xmlns="http://www.w3.org/2000/svg" viewBox="0 0 1440 315">
    <path fill="#e9c27f" fill-opacity="0.8"
        d="M0,224L80,213.3C160,203,320,181,480,186.7C640,192,800,224,960,245.3C1120,267,1280,277,1360,282.7L1440,288L1440,320L1360,320C1280,320,1120,320,960,320C800,320,640,320,480,320C320,320,160,320,80,320L0,320Z"></path>
    <path fill="#ffffff" fill-opacity="0.5"
        d="M0,224L80,197.3C160,171,320,117,480,117.3C640,117,800,171,960,176C1120,181,1280,139,1360,117.3L1440,96L1440,320L1360,320C1280,320,1120,320,960,320C800,320,640,320,480,320C320,320,160,320,80,320L0,320Z"></path>

    <path fill="#ffffff" fill-opacity="0.3"
        d="M0,224L80,229.3C160,235,320,245,480,250.7C640,256,800,256,960,229.3C1120,203,1280,149,1360,122.7L1440,96L1440,320L1360,320C1280,320,1120,320,960,320C800,320,640,320,480,320C320,320,160,320,80,320L0,320Z"></path>

</svg>